<?xml version="1.0" standalone="no"?>
<!DOCTYPE svg PUBLIC "-//W3C//DTD SVG 20010904//EN"
 "http://www.w3.org/TR/2001/REC-SVG-20010904/DTD/svg10.dtd">
<svg version="1.0" xmlns="http://www.w3.org/2000/svg"
 width="189.000000pt" height="189.000000pt" viewBox="0 0 189.000000 189.000000"
 preserveAspectRatio="xMidYMid meet">
<metadata>
Created by potrace 1.11, written by Peter Selinger 2001-2013
</metadata>
<g transform="translate(0.000000,189.000000) scale(0.100000,-0.100000)"
fill="#000000" stroke="none">
<path d="M430 1366 c-151 -31 -269 -142 -306 -289 -56 -217 71 -429 289 -483
92 -23 95 -20 96 70 0 75 0 76 -27 81 -79 17 -107 29 -146 68 -134 135 -57
363 133 393 l40 6 0 78 c0 51 -5 80 -12 83 -7 2 -37 -1 -67 -7z"/>
<path d="M1410 1295 l0 -82 43 -7 c156 -25 240 -188 173 -333 -36 -76 -91
-113 -191 -127 -18 -3 -20 -12 -23 -84 -3 -93 -4 -92 86 -72 306 71 414 443
194 667 -59 62 -135 99 -229 112 l-53 8 0 -82z"/>
<path d="M595 1295 l0 -75 50 -43 c28 -23 85 -78 128 -121 l79 -79 -99 -99
c-54 -54 -112 -108 -129 -118 -30 -19 -31 -21 -29 -97 1 -71 3 -78 21 -75 52
10 125 62 227 163 61 60 114 109 119 109 4 0 57 -48 116 -108 98 -96 169 -148
227 -166 20 -6 21 -1 22 79 1 66 -2 85 -12 85 -8 0 -67 51 -131 113 l-116 113
130 125 129 126 0 71 c0 83 -2 85 -80 46 -33 -17 -95 -69 -169 -142 l-118
-116 -117 116 c-108 106 -195 168 -235 168 -10 0 -13 -20 -13 -75z"/>
</g>
</svg>
