<?xml version="1.0" encoding="utf-8"?>
<!-- Generator: Adobe Illustrator 19.2.0, SVG Export Plug-In . SVG Version: 6.00 Build 0)  -->
<svg version="1.1" id="Layer_1" xmlns="http://www.w3.org/2000/svg" xmlns:xlink="http://www.w3.org/1999/xlink" x="0px" y="0px"
	 viewBox="0 0 512 512" style="enable-background:new 0 0 512 512;" xml:space="preserve">
<style type="text/css">
	.st0{fill:#FFFFFF;}
</style>
<path class="st0" d="M477,355.3l-173.4,43.6c-1.5-5.1-4.2-9.9-8.2-13.9l-55.2-55.2c-6.9-6.8-16-10.6-25.6-10.6H104.3
	c-2.1-19-18.2-33.8-37.8-33.8H38c-20.9,0-38,17-38,38v76.4c0,4.2,3.4,7.5,7.5,7.5c4.2,0,7.5-3.4,7.5-7.5v-76.4
	c0-12.7,10.3-22.9,22.9-22.9h28.6c11.2,0,20.6,8.1,22.6,18.8c0.6,3,0.4-6,0.4,137.6c0,12.7-10.3,22.9-22.9,22.9H38
	c-12.6,0-22.9-10.3-22.9-22.9v-26.9c0-4.1-3.4-7.5-7.5-7.5c-4.1,0-7.5,3.4-7.5,7.5v26.9c0,20.9,17,38,38,38h28.6c20.9,0,38-17,38-38
	v-13.3c55.4,9.6,43.5,6.1,126,46.5c13.4,6.6,26.4,19,53.7,19c14.6,0,28.8-4.1,41.2-11.9l143.1-72.5c3.7-1.9,5.2-6.4,3.3-10.1
	s-6.4-5.2-10.1-3.3c-0.5,0.3-143.5,72.8-144,73.1c-10,6.4-21.6,9.7-33.4,9.7c-22.8,0-32.7-10.5-47.1-17.5
	c-83.9-41.1-72-37.8-132.6-48.2v-94h109.9c5.7,0,11,2.2,15,6.2l55.2,55.2c10.9,10.9,3.6,29.1-11.5,29.1c-4.5,0-8.7-1.8-11.9-4.9
	L211.6,370c-2.9-2.9-7.7-2.9-10.6,0s-2.9,7.7,0,10.6l49.8,49.8c17.9,17.9,48.8,8.8,53.6-16.2c185.9-46.8,175.6-44.4,177.5-44.4
	c15.2,0,20.4,20.7,6.8,27.6c-3.7,1.9-5.2,6.4-3.3,10.1c1.9,3.7,6.4,5.2,10.1,3.3c11.1-5.6,16.1-16.4,16.1-26.3
	C511.5,364.2,491.5,351.6,477,355.3z"/>
<path class="st0" d="M26.7,439.2c0,14.1,11.5,25.5,25.5,25.5s25.5-11.5,25.5-25.5c0-10.2-6.1-19.4-15.5-23.5
	c-3.8-1.6-8.2,0.1-9.9,3.9c-1.6,3.8,0.1,8.2,3.9,9.9c10.4,4.5,7.2,20.1-4.1,20.1c-7.1,0-12.2-6.9-10-13.7
	C45.5,425.8,26.7,419,26.7,439.2z"/>
<path class="st0" d="M501.9,184.9l-36.3-13.2c0.2-4.3,0.2-8.6,0-12.9l36.3-13.2c8-2.9,12.1-11.7,9.2-19.6l-12.3-33.8
	c-2.9-7.9-11.7-12-19.6-9.2l-36.3,13.2c-2.6-3.4-5.4-6.8-8.3-9.9l19.3-33.4c4.2-7.3,1.7-16.7-5.6-20.9l-31.2-18
	c-3.5-2-7.7-2.6-11.6-1.5c-3.9,1.1-7.3,3.6-9.3,7.1l-19.3,33.4c-4.2-1-8.5-1.7-12.8-2.2l-6.7-38c-1.5-8.3-9.4-13.9-17.7-12.4
	l-35.5,6.3c-8.3,1.5-13.9,9.4-12.4,17.7l6.7,38c-3.8,1.9-7.6,4.1-11.2,6.5l-29.6-24.8c-6.5-5.5-16.1-4.6-21.6,1.9L213,73.4
	c-5.4,6.5-4.6,16.1,1.9,21.6l29.5,24.8c-1.7,4-3.2,8-4.4,12.2h-38.6c-8.4,0-15.3,6.9-15.3,15.3v36c0,8.4,6.9,15.3,15.3,15.3H240
	c1.2,4.1,2.7,8.2,4.4,12.2l-29.5,24.8c-6.5,5.4-7.3,15.1-1.9,21.6l23.1,27.6c5.4,6.5,15.1,7.3,21.6,1.9l29.6-24.8
	c3.6,2.4,7.4,4.5,11.2,6.5l-6.7,38c-1.5,8.3,4.1,16.3,12.4,17.7l35.5,6.3c8.3,1.5,16.3-4.1,17.7-12.4l6.7-38
	c4.3-0.5,8.6-1.3,12.8-2.2l19.3,33.4c4.2,7.3,13.6,9.8,20.9,5.6l31.2-18c7.3-4.2,9.8-13.6,5.6-20.9l-19.3-33.4
	c3-3.1,5.7-6.5,8.3-9.9l36.3,13.2c7.9,2.9,16.7-1.2,19.6-9.2l12.3-33.8C514,196.6,509.9,187.8,501.9,184.9z M496.9,199.4l-12.3,33.8
	c0,0,0,0.1-0.1,0.2c-0.1,0.1-0.2,0-0.2,0l-41.6-15.2c-3.3-1.2-6.9,0-8.8,2.9c-4,6-8.7,11.5-13.9,16.5c-2.5,2.4-3,6.2-1.3,9.2
	l22.2,38.4c0.1,0.1,0,0.3-0.1,0.4l-31.2,18c-0.1,0.1-0.3,0-0.4-0.1L387,265.1c-1.7-3-5.3-4.4-8.6-3.5c-6.9,2-14,3.2-21.2,3.7
	c-3.5,0.2-6.3,2.8-6.9,6.2l-7.7,43.7c0,0.1-0.2,0.2-0.3,0.2c-0.4-0.1-35.8-6.2-35.7-6.6l7.7-43.6c0.6-3.4-1.2-6.8-4.4-8.2
	c-6.6-2.9-12.8-6.5-18.6-10.8c-2.8-2.1-6.6-1.9-9.3,0.3L248,275c-0.1,0.1-0.3,0.1-0.4,0l-23.1-27.6c-0.1-0.1-0.1-0.3,0-0.4
	l33.9-28.5c2.7-2.2,3.4-6,1.9-9.1c-3.2-6.4-5.7-13.3-7.4-20.2c-0.8-3.4-3.8-5.7-7.3-5.7h-44.3c-0.2,0-0.3-0.1-0.3-0.3v-36
	c0-0.1,0.1-0.3,0.3-0.3h44.3c3.5,0,6.5-2.4,7.3-5.7c1.7-7,4.2-13.8,7.4-20.2c1.5-3.1,0.7-6.9-1.9-9.1l-33.9-28.5
	c0,0-0.1-0.1-0.1-0.2c0-0.1,0-0.2,0.1-0.2l23.1-27.6c0,0,0.1-0.1,0.2-0.1c0.1,0,0.2,0,0.2,0.1l34,28.5c2.7,2.2,6.5,2.4,9.3,0.3
	c5.8-4.3,12.1-7.9,18.6-10.8c3.2-1.4,5-4.8,4.4-8.2l-7.7-43.6c0-0.1,0.1-0.3,0.2-0.3l35.5-6.3c0,0,0.1,0,0.2,0
	c0.1,0.1,0.1,0.1,0.1,0.2l7.7,43.7c0.6,3.4,3.5,6,6.9,6.2c7.2,0.5,14.3,1.7,21.2,3.7c3.3,1,6.9-0.5,8.6-3.5L409.2,27
	c0,0,0.1-0.1,0.2-0.1c0.1,0,0.2,0,0.2,0l31.2,18c0.1,0.1,0.2,0.2,0.1,0.4l-22.2,38.4c-1.7,3-1.2,6.8,1.3,9.2
	c5.2,5,9.9,10.5,13.9,16.5c1.9,2.9,5.6,4.1,8.8,2.9l41.6-15.2c0.1,0,0.3,0,0.4,0.2l12.3,33.8c0,0,0,0.1,0,0.2c0,0.1-0.1,0.1-0.2,0.1
	l-41.7,15.2c-3.2,1.2-5.3,4.4-4.9,7.9c0.7,6.9,0.8,14.1,0,21.6c-0.4,3.4,1.7,6.7,4.9,7.9l41.7,15.2c0,0,0.1,0,0.2,0.1
	C497,199.3,496.9,199.3,496.9,199.4z"/>
<path class="st0" d="M409.1,116.3l-84.6,84.6l-35.6-35.6c-2.9-2.9-7.7-2.9-10.6,0c-2.9,2.9-2.9,7.7,0,10.6l36.5,36.5
	c5.4,5.4,14.2,5.4,19.6,0l85.4-85.4c2.9-2.9,2.9-7.7,0-10.6S412.1,113.3,409.1,116.3z"/>
</svg>
