<?xml version="1.0" encoding="utf-8"?>
<!-- Generator: Adobe Illustrator 19.2.0, SVG Export Plug-In . SVG Version: 6.00 Build 0)  -->
<svg version="1.1" id="Layer_1" xmlns="http://www.w3.org/2000/svg" xmlns:xlink="http://www.w3.org/1999/xlink" x="0px" y="0px"
	 viewBox="0 0 512 512" style="enable-background:new 0 0 512 512;" xml:space="preserve">
<style type="text/css">
	.st0{fill:#FFFFFF;}
</style>
<path class="st0" d="M490,381.7h-34.3l16.3-16.3v-39c0-27.8-22.6-50.3-50.3-50.3s-50.3,22.6-50.3,50.3v39l16.3,16.3h-34.3
	l-14.5,14.5l-14.5-14.5H290l16.3-16.3v-39c0-27.8-22.6-50.3-50.3-50.3c-27.8,0-50.3,22.6-50.3,50.3v39l16.3,16.3h-34.3l-14.5,14.5
	l-14.5-14.5h-34.3l16.3-16.3v-39c0-27.8-22.6-50.3-50.3-50.3c-27.8,0-50.3,22.6-50.3,50.3v39l16.3,16.3H22l-22,22V512h512V403.8
	L490,381.7z M98.8,451.6l-6.6,8.8h-3.8l-6.6-8.8l5.3-54.9h6.4L98.8,451.6z M55,326.5c0-19.5,15.9-35.3,35.3-35.3
	s35.3,15.8,35.3,35.3v32.8l-22.5,22.5H77.5L55,359.2V326.5z M165.7,497h-21.5v-60.6h-15V497H51.5v-60.6h-15V497H15v-87l13.2-13.2
	h43.8L66.4,456l14.5,19.5h18.9l14.5-19.5l-5.7-59.2h43.8l13.2,13.2V497z M288.9,396.7l-12,27.5l-2.6-27.5H288.9z M256.8,470.5h-1.5
	l-7.8-17.9l5.4-55.9h6.4l5.4,55.9L256.8,470.5z M220.7,326.5c0-19.5,15.8-35.3,35.3-35.3s35.3,15.8,35.3,35.3v32.8l-22.5,22.5h-25.7
	l-22.5-22.5V326.5z M237.7,396.7l-2.6,27.5l-12-27.5H237.7z M331.3,497h-21.5v-60.6h-15V497h-77.6v-60.6h-15V497h-21.5v-87
	l13.2-13.2h12.8l25.4,58.3l13.3,30.4h21.2l10-23l28.7-65.8h12.8l13.2,13.2V497z M430.1,451.6l-6.6,8.8h-3.8l-6.6-8.8l5.3-54.9h6.4
	L430.1,451.6z M386.3,326.5c0-19.5,15.8-35.3,35.3-35.3S457,307,457,326.5v32.8l-22.5,22.5h-25.7l-22.5-22.5V326.5z M497,497h-21.5
	v-60.6h-15V497h-77.6v-60.6h-15V497h-21.5v-87l13.2-13.2h43.8l-5.7,59.2l14.5,19.5h18.9l14.5-19.5l-5.7-59.2h43.8L497,410V497z"/>
<path class="st0" d="M257.7,165c56,0,100.2-52.7,102-55l3.9-4.8l-3.9-4.8c-1.9-2.2-46-55-102-55c-56.1,0-100.2,52.7-102,55l-3.9,4.8
	l3.9,4.8C157.5,112.3,201.6,165,257.7,165z M263.7,105.3c0,3.3-2.7,6-6,6c-3.3,0-6-2.7-6-6s2.7-6,6-6
	C261,99.2,263.7,101.9,263.7,105.3z M269.1,82.1c0-6.4,5.2-11.7,11.7-11.7s11.7,5.2,11.7,11.7c0,6.4-5.2,11.7-11.7,11.7
	S269.1,88.6,269.1,82.1z M264.4,61.1c-7.1,5.6-11,14.3-10.2,23.4c-9.9,1.7-17.6,10.3-17.6,20.7c0,11.6,9.4,21,21,21
	c10.4,0,19.1-7.6,20.7-17.6c9.1,0.8,17.9-3.1,23.4-10.2c4.1,27.2-17,51.4-44.2,51.4c-24.6,0-44.7-20-44.7-44.7
	C213,78.1,237.2,56.9,264.4,61.1z M343.8,105.3c-6,6.3-17.8,17.7-33.1,27.4c8.9-17.1,8.9-37.6,0-54.7
	C326.1,87.6,337.8,99,343.8,105.3z M204.6,77.9c-8.9,17.1-8.9,37.6,0,54.7c-15.3-9.7-27.1-21.1-33.1-27.3
	C177.5,99,189.3,87.6,204.6,77.9z"/>
<path class="st0" d="M125.7,269.6l59.1-59.1h37.5l35.4,54.8l35.4-54.8h37.5l59.1,59.1v-59.1h27.2V0H98.4v210.5h27.2V269.6z
	 M113.4,195.5V15h288.4v180.5h-27.2v37.9l-37.9-37.9h-51.9l-27.3,42.1l-27.3-42.1h-51.9l-37.9,37.9v-37.9H113.4z"/>
<path class="st0" d="M266.9,369.5l-10.6-10.6l10-10h15v6.2L266.9,369.5z M281.3,338.5h-15v-12c0-0.6,0-1.1-0.1-1.7l14.8-2.5
	c0.2,1.4,0.3,2.8,0.3,4.2V338.5z M263.7,319.6c-2-2.2-4.8-3.5-7.7-3.5v-15c7.2,0,14.1,3.1,18.9,8.5L263.7,319.6z"/>
<path class="st0" d="M432.5,369.5l-10.6-10.6l10-10h15v6.2L432.5,369.5z M447,338.5h-15v-12c0-0.6-0.1-1.1-0.1-1.7l14.8-2.5
	c0.2,1.4,0.3,2.8,0.3,4.2V338.5z M429.4,319.6c-2-2.2-4.8-3.5-7.7-3.5v-15c7.2,0,14.1,3.1,18.9,8.5L429.4,319.6z"/>
<path class="st0" d="M101.2,369.5l-10.6-10.6l10-10h15v6.2L101.2,369.5z M115.6,338.5h-15v-12c0-0.6-0.1-1.1-0.1-1.7l14.8-2.5
	c0.2,1.4,0.3,2.8,0.3,4.2V338.5z M98,319.6c-2-2.2-4.8-3.5-7.7-3.5v-15c7.2,0,14.1,3.1,18.9,8.5L98,319.6z"/>
<path class="st0" d="M391.9,154.2h-15V86.3h15V154.2z M391.9,76.3h-15v-15h15V76.3z M391.9,51.3h-15v-15h15V51.3z"/>
</svg>
