<?xml version="1.0" encoding="utf-8"?>
<!-- Generator: Adobe Illustrator 19.2.0, SVG Export Plug-In . SVG Version: 6.00 Build 0)  -->
<svg version="1.1" id="Layer_1" xmlns="http://www.w3.org/2000/svg" xmlns:xlink="http://www.w3.org/1999/xlink" x="0px" y="0px"
	 viewBox="0 0 512 512" style="enable-background:new 0 0 512 512;" xml:space="preserve">
<style type="text/css">
	.st0{fill:#FFFFFF;}
</style>
<title>Chatbot</title>
<path class="st0" d="M330,326v-60.7c-0.2-3.5-3-6.2-6.5-6.3H273v-30.1c0.2-3.1-2.2-5.7-5.3-5.9c-0.1,0-0.2,0-0.3,0H192v-26.1
	c11.4-3.3,18-15.1,14.7-26.5c-3.3-11.4-15.1-18-26.5-14.7s-18,15.1-14.7,26.5c2,7,7.5,12.6,14.5,14.7V223h-75.2
	c-3.2,0-5.8,2.5-5.8,5.7c0,0.1,0,0.1,0,0.2V259H48.7c-3.3,0-5.7,3-5.7,6.3V326c-19.6,3.7-32.5,22.6-28.9,42.2
	c2.8,14.6,14.2,26.1,28.9,28.9v85.8c-0.1,3.3,2.4,6,5.7,6.2c0,0,0,0,0,0h274.8c3.3,0,6.5-2.9,6.5-6.2V397
	c16-3.1,29.5-17.9,29.5-35.5S346,329.1,330,326z M176.6,176.3c0-5.2,4.2-9.5,9.5-9.5c5.2,0,9.5,4.2,9.5,9.5c0,5.2-4.2,9.5-9.5,9.5
	l0,0C180.9,185.8,176.7,181.5,176.6,176.3z M111,235h150v24H111V235z M25.5,361.5c0-10.8,7.2-20.2,17.5-23.2v46.4
	C32.7,381.7,25.6,372.2,25.5,361.5z M318,477H55V271h263V477z M330,384.7v-46.4c12.8,3.7,20.2,17.1,16.5,29.9
	C344.2,376.2,338,382.4,330,384.7L330,384.7z"/>
<path class="st0" d="M261,388c0-3.3-2.7-6-6-6H118c-3.3,0-6,2.7-6,6v60c0,3.3,2.7,6,6,6h137c3.3,0,6-2.7,6-6V388z M192,394h23v48
	h-23V394z M180,442h-23v-48h23V442z M124,394h21v48h-21V394z M248,442h-21v-48h21V442z"/>
<path class="st0" d="M157,315c0-3.3-2.7-6-6-6h-39c-3.3,0-6,2.7-6,6v39c0,3.3,2.7,6,6,6h39c3.3,0,6-2.7,6-6V315z M144,347h-26v-26
	h26V347z"/>
<path class="st0" d="M267,315c0-3.3-2.7-6-6-6h-39c-3.3,0-6,2.7-6,6v39c0,3.3,2.7,6,6,6h39c3.3,0,6-2.7,6-6V315z M255,347h-27v-26
	h27V347z"/>
<path class="st0" d="M376.6,99.8c-12.6,0-22.9,10.2-22.9,22.9s10.2,22.9,22.9,22.9c12.6,0,22.9-10.2,22.9-22.9
	C399.5,110,389.3,99.8,376.6,99.8z M376.6,133.5c-6,0-10.9-4.9-10.9-10.9s4.9-10.9,10.9-10.9c6,0,10.9,4.9,10.9,10.9
	C387.5,128.7,382.6,133.5,376.6,133.5z"/>
<path class="st0" d="M317.6,99.8c-12.6,0-22.9,10.2-22.9,22.9s10.2,22.9,22.9,22.9s22.9-10.2,22.9-22.9l0,0
	C340.5,110,330.2,99.8,317.6,99.8z M317.6,133.5c-6,0-10.9-4.9-10.9-10.9s4.9-10.9,10.9-10.9s10.9,4.9,10.9,10.9c0,0,0,0,0,0
	C328.5,128.7,323.6,133.5,317.6,133.5z"/>
<path class="st0" d="M435.7,99.8c-12.6,0-22.9,10.2-22.9,22.9s10.2,22.9,22.9,22.9s22.9-10.2,22.9-22.9l0,0
	C458.5,110,448.3,99.8,435.7,99.8z M435.7,133.5c-6,0-10.9-4.9-10.9-10.9s4.9-10.9,10.9-10.9s10.9,4.9,10.9,10.9c0,0,0,0,0,0
	C446.5,128.7,441.6,133.5,435.7,133.5z"/>
<path class="st0" d="M462,51.4c-22.9-18.2-53.2-28.2-85.3-28.2s-62.4,10-85.3,28.2c-23.7,18.8-36.8,44.2-36.8,71.3
	c0,26.8,12.8,51.8,35.9,70.6l-1.7,44.5c-0.1,3.3,2.5,6.1,5.8,6.2c0.9,0,1.8-0.1,2.6-0.5l55.2-23.3c8.1,1.3,16.2,2,24.4,2
	c32.1,0,62.4-10,85.3-28.2c23.7-18.8,36.8-44.2,36.8-71.3S485.7,70.2,462,51.4z M454.5,184.5c-20.8,16.5-48.4,25.6-77.9,25.6
	c-8.1,0-16.1-0.7-24.1-2.1c-1.1-0.2-2.3-0.1-3.4,0.4l-48.1,20.3l1.5-38.1c0.1-1.9-0.8-3.8-2.3-5l-0.2-0.1c-0.4-0.3-0.9-0.7-1.3-1
	C278,168,266.5,146,266.5,122.7s11.5-45.3,32.3-61.9s48.4-25.6,77.9-25.6s57.1,9.1,77.9,25.6s32.3,38.5,32.3,61.9
	S475.3,168,454.5,184.5L454.5,184.5z"/>
</svg>
