<?xml version="1.0" encoding="utf-8"?>
<!-- Generator: Adobe Illustrator 19.2.0, SVG Export Plug-In . SVG Version: 6.00 Build 0)  -->
<svg version="1.1" id="Capa_1" xmlns="http://www.w3.org/2000/svg" xmlns:xlink="http://www.w3.org/1999/xlink" x="0px" y="0px"
	 viewBox="0 0 480 480" style="enable-background:new 0 0 480 480;" xml:space="preserve">
<style type="text/css">
	.st0{fill:#FFFFFF;}
</style>
<g>
	<g>
		<g>
			<path class="st0" d="M472,416h-8V168c0-4.4-3.6-8-8-8H24c-4.4,0-8,3.6-8,8v248H8c-4.4,0-8,3.6-8,8v16c0,22.1,17.9,40,40,40h400
				c22.1,0,40-17.9,40-40v-16C480,419.6,476.4,416,472,416z M32,176h416v240H304c-2.1,0-4.2,0.9-5.7,2.4L284.7,432h-89.4l-13.6-13.6
				c-1.5-1.5-3.5-2.3-5.7-2.4H32V176z M464,440c0,13.3-10.7,24-24,24H40c-13.3,0-24-10.7-24-24v-8h156.7l13.7,13.7
				c1.5,1.5,3.5,2.3,5.7,2.3h96c2.1,0,4.2-0.8,5.7-2.3l13.7-13.7H464V440z"/>
			<path class="st0" d="M176.6,346.3l96.4-88.4l96,55.9l70.9-71V184H40v184.4l80.2-62.4L176.6,346.3z M56,335.6V200h368v36.2
				l-57.5,57.5l-95.5-55.6l-95.6,87.6L119.8,286L56,335.6z"/>
			<path class="st0" d="M112,152c4.4,0,8-3.6,8-8v-17.2l27.8-4.6c3.2-0.5,5.7-2.9,6.5-6.1c2.1-9.4,5.9-18.4,11-26.6
				c1.7-2.8,1.6-6.3-0.3-8.9l-16.4-22.9l13-13L184.5,61c2.6,1.9,6.2,2,8.9,0.3c8.2-5.1,17.1-8.8,26.5-11c3.2-0.7,5.6-3.3,6.1-6.5
				l4.7-27.8h18.4l4.6,27.8c0.5,3.2,2.9,5.7,6.1,6.5c9.4,2.2,18.4,5.9,26.6,11c2.8,1.7,6.3,1.6,8.9-0.3l22.9-16.4l13,13L315,80.5
				c-1.9,2.6-2,6.2-0.3,8.9c5.1,8.2,8.8,17.1,11,26.5c0.7,3.2,3.3,5.6,6.5,6.1l27.8,4.6V144c0,4.4,3.6,8,8,8s8-3.6,8-8v-24
				c0-3.9-2.8-7.2-6.7-7.9l-29.3-4.9c-2.1-7.5-5.1-14.8-8.9-21.6l17.3-24.2c2.3-3.2,1.9-7.5-0.9-10.3l-22.6-22.6
				c-2.8-2.8-7.1-3.1-10.3-0.8l-24.2,17.3c-6.8-3.8-14.1-6.8-21.6-8.9l-4.9-29.3c-0.7-3.8-4-6.7-7.9-6.7h-32c-3.9,0-7.2,2.8-7.9,6.7
				L211.2,36c-7.5,2.1-14.8,5.1-21.6,8.9l-24.1-17.3c-3.2-2.3-7.5-1.9-10.3,0.8l-22.6,22.6c-2.8,2.8-3.1,7.1-0.8,10.3l17.3,24.1
				c-3.8,6.8-6.8,14.1-8.9,21.6l-29.3,4.9c-3.8,0.7-6.7,4-6.7,7.9v24C104,148.4,107.6,152,112,152z"/>
			<path class="st0" d="M288,136c0,4.4,3.6,8,8,8s8-3.6,8-8c0-35.3-28.7-64-64-64s-64,28.7-64,64c0,4.4,3.6,8,8,8s8-3.6,8-8
				c0-26.5,21.5-48,48-48S288,109.5,288,136z"/>
			<path class="st0" d="M208,136c0,4.4,3.6,8,8,8s8-3.6,8-8c0-8.8,7.2-16,16-16s16,7.2,16,16c0,4.4,3.6,8,8,8s8-3.6,8-8
				c0-17.7-14.3-32-32-32S208,118.3,208,136z"/>
			<polygon class="st0" points="440,400 440,392 440,272 424,272 424,392 408,392 408,304 392,304 392,392 376,392 376,328 360,328 
				360,392 344,392 344,312 328,312 328,392 312,392 312,296 296,296 296,392 280,392 280,280 264,280 264,392 248,392 248,312 
				232,312 232,392 216,392 216,344 200,344 200,392 184,392 184,360 168,360 168,392 152,392 152,344 136,344 136,392 120,392 
				120,336 104,336 104,392 88,392 88,360 72,360 72,392 56,392 56,384 40,384 40,392 40,400 40,408 440,408 			"/>
		</g>
	</g>
</g>
</svg>
